<mxfile host="0RQ">
  <diagram id="QWE" name="midnight_blue">
    <mxGraphModel dx="0" dy="0" background="#191970" grid="0" gridSize="10" guides="1" tooltips="1" connect="1" arrows="1" fold="1" page="1" pageScale="1" pageWidth="1169" pageHeight="827" math="0" shadow="0">
      <root>
        <mxCell id="page_root_QWE" parent="QWE"/>
        <mxCell id="node_root_QWE" parent="page_root_QWE"/>
        <mxCell id="QWE-2" value="midnight_blue" style="whiteSpace=wrap;html=1;fontColor=#FFFFFF;text;fontSize=89;fontStyle=1;fillColor=none" vertex="1" parent="node_root_QWE">
          <mxGeometry x="200" y="35" width="100" height="50" as="geometry"/>
        </mxCell>
        <mxCell id="QWE-3" value="midnight_blue" style="whiteSpace=wrap;html=1;fontColor=#FFFFFF;text;fontSize=21;fontStyle=1;fillColor=none" vertex="1" parent="node_root_QWE">
          <mxGeometry x="700" y="35" width="100" height="50" as="geometry"/>
        </mxCell>
        <mxCell id="QWE-4" value="midnight_blue" style="whiteSpace=wrap;html=1;fontColor=#FFFFFF;text;fontSize=67;fontStyle=1;fillColor=none" vertex="1" parent="node_root_QWE">
          <mxGeometry x="200" y="155" width="100" height="50" as="geometry"/>
        </mxCell>
        <mxCell id="QWE-5" value="midnight_blue" style="whiteSpace=wrap;html=1;fontColor=#FFFFFF;text;fontSize=28;fontStyle=1;fillColor=none" vertex="1" parent="node_root_QWE">
          <mxGeometry x="700" y="155" width="100" height="50" as="geometry"/>
        </mxCell>
        <mxCell id="QWE-6" value="midnight_blue" style="whiteSpace=wrap;html=1;fontColor=#FFFFFF;text;fontSize=50;fontStyle=1;fillColor=none" vertex="1" parent="node_root_QWE">
          <mxGeometry x="200" y="275" width="100" height="50" as="geometry"/>
        </mxCell>
        <mxCell id="QWE-7" value="midnight_blue" style="whiteSpace=wrap;html=1;fontColor=#FFFFFF;text;fontSize=37;fontStyle=1;fillColor=none" vertex="1" parent="node_root_QWE">
          <mxGeometry x="700" y="275" width="100" height="50" as="geometry"/>
        </mxCell>
        <mxCell id="QWE-8" value="midnight_blue" style="whiteSpace=wrap;html=1;fontColor=#FFFFFF;text;fontSize=16;fontStyle=1;fillColor=none" vertex="1" parent="node_root_QWE">
          <mxGeometry x="200" y="395" width="100" height="50" as="geometry"/>
        </mxCell>
        <mxCell id="QWE-9" value="" style="whiteSpace=wrap;html=1;fillColor=#ffffff;strokeColor=#000000;fontColor=#000000" vertex="1" parent="node_root_QWE">
          <mxGeometry x="705" y="375" width="90" height="90" as="geometry"/>
        </mxCell>
        <mxCell id="QWE-11" value="" style="whiteSpace=wrap;html=1;fillColor=#ffffff;strokeColor=#000000;fontColor=#000000" vertex="1" parent="node_root_QWE">
          <mxGeometry x="25" y="485" width="90" height="90" as="geometry"/>
        </mxCell>
        <mxCell id="QWE-12" value="" style="whiteSpace=wrap;html=1;fillColor=#ffffff;strokeColor=#000000;fontColor=#000000;ellipse" vertex="1" parent="node_root_QWE">
          <mxGeometry x="165" y="485" width="90" height="90" as="geometry"/>
        </mxCell>
        <mxCell id="QWE-13" value="" style="whiteSpace=wrap;html=1;fillColor=#ffffff;strokeColor=#000000;fontColor=#000000;shape=actor" vertex="1" parent="node_root_QWE">
          <mxGeometry x="305" y="485" width="90" height="90" as="geometry"/>
        </mxCell>
        <mxCell id="QWE-14" value="" style="whiteSpace=wrap;html=1;fillColor=#ffffff;strokeColor=#000000;fontColor=#000000;verticalLabelPosition=bottom;verticalAlign=top;shape=mxgraph.basic.tick" vertex="1" parent="node_root_QWE">
          <mxGeometry x="445" y="485" width="90" height="90" as="geometry"/>
        </mxCell>
        <mxCell id="QWE-15" value="" style="whiteSpace=wrap;html=1;fillColor=#ffffff;strokeColor=#000000;fontColor=#000000;verticalLabelPosition=bottom;verticalAlign=top;html=1;shape=mxgraph.basic.x" vertex="1" parent="node_root_QWE">
          <mxGeometry x="585" y="485" width="90" height="90" as="geometry"/>
        </mxCell>
        <mxCell id="QWE-16" value="" style="whiteSpace=wrap;html=1;fillColor=#ffffff;strokeColor=#000000;fontColor=#000000;shape=cloud" vertex="1" parent="node_root_QWE">
          <mxGeometry x="725" y="485" width="90" height="90" as="geometry"/>
        </mxCell>
      </root>
    </mxGraphModel>
  </diagram>
  <diagram id="mmy" name="dodger_blue">
    <mxGraphModel dx="0" dy="0" background="#1E90FF" grid="0" gridSize="10" guides="1" tooltips="1" connect="1" arrows="1" fold="1" page="1" pageScale="1" pageWidth="1169" pageHeight="827" math="0" shadow="0">
      <root>
        <mxCell id="page_root_mmy" parent="mmy"/>
        <mxCell id="node_root_mmy" parent="page_root_mmy"/>
        <mxCell id="mmy-2" value="dodger_blue" style="whiteSpace=wrap;html=1;fontColor=#FFFFFF;text;fontSize=89;fontStyle=1;fillColor=none" vertex="1" parent="node_root_mmy">
          <mxGeometry x="200" y="35" width="100" height="50" as="geometry"/>
        </mxCell>
        <mxCell id="mmy-3" value="dodger_blue" style="whiteSpace=wrap;html=1;fontColor=#FFFFFF;text;fontSize=21;fontStyle=1;fillColor=none" vertex="1" parent="node_root_mmy">
          <mxGeometry x="700" y="35" width="100" height="50" as="geometry"/>
        </mxCell>
        <mxCell id="mmy-4" value="dodger_blue" style="whiteSpace=wrap;html=1;fontColor=#FFFFFF;text;fontSize=67;fontStyle=1;fillColor=none" vertex="1" parent="node_root_mmy">
          <mxGeometry x="200" y="155" width="100" height="50" as="geometry"/>
        </mxCell>
        <mxCell id="mmy-5" value="dodger_blue" style="whiteSpace=wrap;html=1;fontColor=#FFFFFF;text;fontSize=28;fontStyle=1;fillColor=none" vertex="1" parent="node_root_mmy">
          <mxGeometry x="700" y="155" width="100" height="50" as="geometry"/>
        </mxCell>
        <mxCell id="mmy-6" value="dodger_blue" style="whiteSpace=wrap;html=1;fontColor=#FFFFFF;text;fontSize=50;fontStyle=1;fillColor=none" vertex="1" parent="node_root_mmy">
          <mxGeometry x="200" y="275" width="100" height="50" as="geometry"/>
        </mxCell>
        <mxCell id="mmy-7" value="dodger_blue" style="whiteSpace=wrap;html=1;fontColor=#FFFFFF;text;fontSize=37;fontStyle=1;fillColor=none" vertex="1" parent="node_root_mmy">
          <mxGeometry x="700" y="275" width="100" height="50" as="geometry"/>
        </mxCell>
        <mxCell id="mmy-8" value="dodger_blue" style="whiteSpace=wrap;html=1;fontColor=#FFFFFF;text;fontSize=16;fontStyle=1;fillColor=none" vertex="1" parent="node_root_mmy">
          <mxGeometry x="200" y="395" width="100" height="50" as="geometry"/>
        </mxCell>
        <mxCell id="mmy-9" value="" style="whiteSpace=wrap;html=1;fillColor=#ffffff;strokeColor=#000000;fontColor=#000000" vertex="1" parent="node_root_mmy">
          <mxGeometry x="705" y="375" width="90" height="90" as="geometry"/>
        </mxCell>
        <mxCell id="mmy-11" value="" style="whiteSpace=wrap;html=1;fillColor=#ffffff;strokeColor=#000000;fontColor=#000000" vertex="1" parent="node_root_mmy">
          <mxGeometry x="25" y="485" width="90" height="90" as="geometry"/>
        </mxCell>
        <mxCell id="mmy-12" value="" style="whiteSpace=wrap;html=1;fillColor=#ffffff;strokeColor=#000000;fontColor=#000000;ellipse" vertex="1" parent="node_root_mmy">
          <mxGeometry x="165" y="485" width="90" height="90" as="geometry"/>
        </mxCell>
        <mxCell id="mmy-13" value="" style="whiteSpace=wrap;html=1;fillColor=#ffffff;strokeColor=#000000;fontColor=#000000;shape=actor" vertex="1" parent="node_root_mmy">
          <mxGeometry x="305" y="485" width="90" height="90" as="geometry"/>
        </mxCell>
        <mxCell id="mmy-14" value="" style="whiteSpace=wrap;html=1;fillColor=#ffffff;strokeColor=#000000;fontColor=#000000;verticalLabelPosition=bottom;verticalAlign=top;shape=mxgraph.basic.tick" vertex="1" parent="node_root_mmy">
          <mxGeometry x="445" y="485" width="90" height="90" as="geometry"/>
        </mxCell>
        <mxCell id="mmy-15" value="" style="whiteSpace=wrap;html=1;fillColor=#ffffff;strokeColor=#000000;fontColor=#000000;verticalLabelPosition=bottom;verticalAlign=top;html=1;shape=mxgraph.basic.x" vertex="1" parent="node_root_mmy">
          <mxGeometry x="585" y="485" width="90" height="90" as="geometry"/>
        </mxCell>
        <mxCell id="mmy-16" value="" style="whiteSpace=wrap;html=1;fillColor=#ffffff;strokeColor=#000000;fontColor=#000000;shape=cloud" vertex="1" parent="node_root_mmy">
          <mxGeometry x="725" y="485" width="90" height="90" as="geometry"/>
        </mxCell>
      </root>
    </mxGraphModel>
  </diagram>
  <diagram id="5Nh" name="light_sea_green">
    <mxGraphModel dx="0" dy="0" background="#20B2AA" grid="0" gridSize="10" guides="1" tooltips="1" connect="1" arrows="1" fold="1" page="1" pageScale="1" pageWidth="1169" pageHeight="827" math="0" shadow="0">
      <root>
        <mxCell id="page_root_5Nh" parent="5Nh"/>
        <mxCell id="node_root_5Nh" parent="page_root_5Nh"/>
        <mxCell id="5Nh-2" value="light_sea_green" style="whiteSpace=wrap;html=1;fontColor=#FFFFFF;text;fontSize=89;fontStyle=1;fillColor=none" vertex="1" parent="node_root_5Nh">
          <mxGeometry x="200" y="35" width="100" height="50" as="geometry"/>
        </mxCell>
        <mxCell id="5Nh-3" value="light_sea_green" style="whiteSpace=wrap;html=1;fontColor=#FFFFFF;text;fontSize=21;fontStyle=1;fillColor=none" vertex="1" parent="node_root_5Nh">
          <mxGeometry x="700" y="35" width="100" height="50" as="geometry"/>
        </mxCell>
        <mxCell id="5Nh-4" value="light_sea_green" style="whiteSpace=wrap;html=1;fontColor=#FFFFFF;text;fontSize=67;fontStyle=1;fillColor=none" vertex="1" parent="node_root_5Nh">
          <mxGeometry x="200" y="155" width="100" height="50" as="geometry"/>
        </mxCell>
        <mxCell id="5Nh-5" value="light_sea_green" style="whiteSpace=wrap;html=1;fontColor=#FFFFFF;text;fontSize=28;fontStyle=1;fillColor=none" vertex="1" parent="node_root_5Nh">
          <mxGeometry x="700" y="155" width="100" height="50" as="geometry"/>
        </mxCell>
        <mxCell id="5Nh-6" value="light_sea_green" style="whiteSpace=wrap;html=1;fontColor=#FFFFFF;text;fontSize=50;fontStyle=1;fillColor=none" vertex="1" parent="node_root_5Nh">
          <mxGeometry x="200" y="275" width="100" height="50" as="geometry"/>
        </mxCell>
        <mxCell id="5Nh-7" value="light_sea_green" style="whiteSpace=wrap;html=1;fontColor=#FFFFFF;text;fontSize=37;fontStyle=1;fillColor=none" vertex="1" parent="node_root_5Nh">
          <mxGeometry x="700" y="275" width="100" height="50" as="geometry"/>
        </mxCell>
        <mxCell id="5Nh-8" value="light_sea_green" style="whiteSpace=wrap;html=1;fontColor=#FFFFFF;text;fontSize=16;fontStyle=1;fillColor=none" vertex="1" parent="node_root_5Nh">
          <mxGeometry x="200" y="395" width="100" height="50" as="geometry"/>
        </mxCell>
        <mxCell id="5Nh-9" value="" style="whiteSpace=wrap;html=1;fillColor=#ffffff;strokeColor=#000000;fontColor=#000000" vertex="1" parent="node_root_5Nh">
          <mxGeometry x="705" y="375" width="90" height="90" as="geometry"/>
        </mxCell>
        <mxCell id="5Nh-11" value="" style="whiteSpace=wrap;html=1;fillColor=#ffffff;strokeColor=#000000;fontColor=#000000" vertex="1" parent="node_root_5Nh">
          <mxGeometry x="25" y="485" width="90" height="90" as="geometry"/>
        </mxCell>
        <mxCell id="5Nh-12" value="" style="whiteSpace=wrap;html=1;fillColor=#ffffff;strokeColor=#000000;fontColor=#000000;ellipse" vertex="1" parent="node_root_5Nh">
          <mxGeometry x="165" y="485" width="90" height="90" as="geometry"/>
        </mxCell>
        <mxCell id="5Nh-13" value="" style="whiteSpace=wrap;html=1;fillColor=#ffffff;strokeColor=#000000;fontColor=#000000;shape=actor" vertex="1" parent="node_root_5Nh">
          <mxGeometry x="305" y="485" width="90" height="90" as="geometry"/>
        </mxCell>
        <mxCell id="5Nh-14" value="" style="whiteSpace=wrap;html=1;fillColor=#ffffff;strokeColor=#000000;fontColor=#000000;verticalLabelPosition=bottom;verticalAlign=top;shape=mxgraph.basic.tick" vertex="1" parent="node_root_5Nh">
          <mxGeometry x="445" y="485" width="90" height="90" as="geometry"/>
        </mxCell>
        <mxCell id="5Nh-15" value="" style="whiteSpace=wrap;html=1;fillColor=#ffffff;strokeColor=#000000;fontColor=#000000;verticalLabelPosition=bottom;verticalAlign=top;html=1;shape=mxgraph.basic.x" vertex="1" parent="node_root_5Nh">
          <mxGeometry x="585" y="485" width="90" height="90" as="geometry"/>
        </mxCell>
        <mxCell id="5Nh-16" value="" style="whiteSpace=wrap;html=1;fillColor=#ffffff;strokeColor=#000000;fontColor=#000000;shape=cloud" vertex="1" parent="node_root_5Nh">
          <mxGeometry x="725" y="485" width="90" height="90" as="geometry"/>
        </mxCell>
      </root>
    </mxGraphModel>
  </diagram>
  <diagram id="E1q" name="forest_green">
    <mxGraphModel dx="0" dy="0" background="#228B22" grid="0" gridSize="10" guides="1" tooltips="1" connect="1" arrows="1" fold="1" page="1" pageScale="1" pageWidth="1169" pageHeight="827" math="0" shadow="0">
      <root>
        <mxCell id="page_root_E1q" parent="E1q"/>
        <mxCell id="node_root_E1q" parent="page_root_E1q"/>
        <mxCell id="E1q-2" value="forest_green" style="whiteSpace=wrap;html=1;fontColor=#FFFFFF;text;fontSize=89;fontStyle=1;fillColor=none" vertex="1" parent="node_root_E1q">
          <mxGeometry x="200" y="35" width="100" height="50" as="geometry"/>
        </mxCell>
        <mxCell id="E1q-3" value="forest_green" style="whiteSpace=wrap;html=1;fontColor=#FFFFFF;text;fontSize=21;fontStyle=1;fillColor=none" vertex="1" parent="node_root_E1q">
          <mxGeometry x="700" y="35" width="100" height="50" as="geometry"/>
        </mxCell>
        <mxCell id="E1q-4" value="forest_green" style="whiteSpace=wrap;html=1;fontColor=#FFFFFF;text;fontSize=67;fontStyle=1;fillColor=none" vertex="1" parent="node_root_E1q">
          <mxGeometry x="200" y="155" width="100" height="50" as="geometry"/>
        </mxCell>
        <mxCell id="E1q-5" value="forest_green" style="whiteSpace=wrap;html=1;fontColor=#FFFFFF;text;fontSize=28;fontStyle=1;fillColor=none" vertex="1" parent="node_root_E1q">
          <mxGeometry x="700" y="155" width="100" height="50" as="geometry"/>
        </mxCell>
        <mxCell id="E1q-6" value="forest_green" style="whiteSpace=wrap;html=1;fontColor=#FFFFFF;text;fontSize=50;fontStyle=1;fillColor=none" vertex="1" parent="node_root_E1q">
          <mxGeometry x="200" y="275" width="100" height="50" as="geometry"/>
        </mxCell>
        <mxCell id="E1q-7" value="forest_green" style="whiteSpace=wrap;html=1;fontColor=#FFFFFF;text;fontSize=37;fontStyle=1;fillColor=none" vertex="1" parent="node_root_E1q">
          <mxGeometry x="700" y="275" width="100" height="50" as="geometry"/>
        </mxCell>
        <mxCell id="E1q-8" value="forest_green" style="whiteSpace=wrap;html=1;fontColor=#FFFFFF;text;fontSize=16;fontStyle=1;fillColor=none" vertex="1" parent="node_root_E1q">
          <mxGeometry x="200" y="395" width="100" height="50" as="geometry"/>
        </mxCell>
        <mxCell id="E1q-9" value="" style="whiteSpace=wrap;html=1;fillColor=#ffffff;strokeColor=#000000;fontColor=#000000" vertex="1" parent="node_root_E1q">
          <mxGeometry x="705" y="375" width="90" height="90" as="geometry"/>
        </mxCell>
        <mxCell id="E1q-11" value="" style="whiteSpace=wrap;html=1;fillColor=#ffffff;strokeColor=#000000;fontColor=#000000" vertex="1" parent="node_root_E1q">
          <mxGeometry x="25" y="485" width="90" height="90" as="geometry"/>
        </mxCell>
        <mxCell id="E1q-12" value="" style="whiteSpace=wrap;html=1;fillColor=#ffffff;strokeColor=#000000;fontColor=#000000;ellipse" vertex="1" parent="node_root_E1q">
          <mxGeometry x="165" y="485" width="90" height="90" as="geometry"/>
        </mxCell>
        <mxCell id="E1q-13" value="" style="whiteSpace=wrap;html=1;fillColor=#ffffff;strokeColor=#000000;fontColor=#000000;shape=actor" vertex="1" parent="node_root_E1q">
          <mxGeometry x="305" y="485" width="90" height="90" as="geometry"/>
        </mxCell>
        <mxCell id="E1q-14" value="" style="whiteSpace=wrap;html=1;fillColor=#ffffff;strokeColor=#000000;fontColor=#000000;verticalLabelPosition=bottom;verticalAlign=top;shape=mxgraph.basic.tick" vertex="1" parent="node_root_E1q">
          <mxGeometry x="445" y="485" width="90" height="90" as="geometry"/>
        </mxCell>
        <mxCell id="E1q-15" value="" style="whiteSpace=wrap;html=1;fillColor=#ffffff;strokeColor=#000000;fontColor=#000000;verticalLabelPosition=bottom;verticalAlign=top;html=1;shape=mxgraph.basic.x" vertex="1" parent="node_root_E1q">
          <mxGeometry x="585" y="485" width="90" height="90" as="geometry"/>
        </mxCell>
        <mxCell id="E1q-16" value="" style="whiteSpace=wrap;html=1;fillColor=#ffffff;strokeColor=#000000;fontColor=#000000;shape=cloud" vertex="1" parent="node_root_E1q">
          <mxGeometry x="725" y="485" width="90" height="90" as="geometry"/>
        </mxCell>
      </root>
    </mxGraphModel>
  </diagram>
  <diagram id="mZT" name="sea_green">
    <mxGraphModel dx="0" dy="0" background="#2E8B57" grid="0" gridSize="10" guides="1" tooltips="1" connect="1" arrows="1" fold="1" page="1" pageScale="1" pageWidth="1169" pageHeight="827" math="0" shadow="0">
      <root>
        <mxCell id="page_root_mZT" parent="mZT"/>
        <mxCell id="node_root_mZT" parent="page_root_mZT"/>
        <mxCell id="mZT-2" value="sea_green" style="whiteSpace=wrap;html=1;fontColor=#FFFFFF;text;fontSize=89;fontStyle=1;fillColor=none" vertex="1" parent="node_root_mZT">
          <mxGeometry x="200" y="35" width="100" height="50" as="geometry"/>
        </mxCell>
        <mxCell id="mZT-3" value="sea_green" style="whiteSpace=wrap;html=1;fontColor=#FFFFFF;text;fontSize=21;fontStyle=1;fillColor=none" vertex="1" parent="node_root_mZT">
          <mxGeometry x="700" y="35" width="100" height="50" as="geometry"/>
        </mxCell>
        <mxCell id="mZT-4" value="sea_green" style="whiteSpace=wrap;html=1;fontColor=#FFFFFF;text;fontSize=67;fontStyle=1;fillColor=none" vertex="1" parent="node_root_mZT">
          <mxGeometry x="200" y="155" width="100" height="50" as="geometry"/>
        </mxCell>
        <mxCell id="mZT-5" value="sea_green" style="whiteSpace=wrap;html=1;fontColor=#FFFFFF;text;fontSize=28;fontStyle=1;fillColor=none" vertex="1" parent="node_root_mZT">
          <mxGeometry x="700" y="155" width="100" height="50" as="geometry"/>
        </mxCell>
        <mxCell id="mZT-6" value="sea_green" style="whiteSpace=wrap;html=1;fontColor=#FFFFFF;text;fontSize=50;fontStyle=1;fillColor=none" vertex="1" parent="node_root_mZT">
          <mxGeometry x="200" y="275" width="100" height="50" as="geometry"/>
        </mxCell>
        <mxCell id="mZT-7" value="sea_green" style="whiteSpace=wrap;html=1;fontColor=#FFFFFF;text;fontSize=37;fontStyle=1;fillColor=none" vertex="1" parent="node_root_mZT">
          <mxGeometry x="700" y="275" width="100" height="50" as="geometry"/>
        </mxCell>
        <mxCell id="mZT-8" value="sea_green" style="whiteSpace=wrap;html=1;fontColor=#FFFFFF;text;fontSize=16;fontStyle=1;fillColor=none" vertex="1" parent="node_root_mZT">
          <mxGeometry x="200" y="395" width="100" height="50" as="geometry"/>
        </mxCell>
        <mxCell id="mZT-9" value="" style="whiteSpace=wrap;html=1;fillColor=#ffffff;strokeColor=#000000;fontColor=#000000" vertex="1" parent="node_root_mZT">
          <mxGeometry x="705" y="375" width="90" height="90" as="geometry"/>
        </mxCell>
        <mxCell id="mZT-11" value="" style="whiteSpace=wrap;html=1;fillColor=#ffffff;strokeColor=#000000;fontColor=#000000" vertex="1" parent="node_root_mZT">
          <mxGeometry x="25" y="485" width="90" height="90" as="geometry"/>
        </mxCell>
        <mxCell id="mZT-12" value="" style="whiteSpace=wrap;html=1;fillColor=#ffffff;strokeColor=#000000;fontColor=#000000;ellipse" vertex="1" parent="node_root_mZT">
          <mxGeometry x="165" y="485" width="90" height="90" as="geometry"/>
        </mxCell>
        <mxCell id="mZT-13" value="" style="whiteSpace=wrap;html=1;fillColor=#ffffff;strokeColor=#000000;fontColor=#000000;shape=actor" vertex="1" parent="node_root_mZT">
          <mxGeometry x="305" y="485" width="90" height="90" as="geometry"/>
        </mxCell>
        <mxCell id="mZT-14" value="" style="whiteSpace=wrap;html=1;fillColor=#ffffff;strokeColor=#000000;fontColor=#000000;verticalLabelPosition=bottom;verticalAlign=top;shape=mxgraph.basic.tick" vertex="1" parent="node_root_mZT">
          <mxGeometry x="445" y="485" width="90" height="90" as="geometry"/>
        </mxCell>
        <mxCell id="mZT-15" value="" style="whiteSpace=wrap;html=1;fillColor=#ffffff;strokeColor=#000000;fontColor=#000000;verticalLabelPosition=bottom;verticalAlign=top;html=1;shape=mxgraph.basic.x" vertex="1" parent="node_root_mZT">
          <mxGeometry x="585" y="485" width="90" height="90" as="geometry"/>
        </mxCell>
        <mxCell id="mZT-16" value="" style="whiteSpace=wrap;html=1;fillColor=#ffffff;strokeColor=#000000;fontColor=#000000;shape=cloud" vertex="1" parent="node_root_mZT">
          <mxGeometry x="725" y="485" width="90" height="90" as="geometry"/>
        </mxCell>
      </root>
    </mxGraphModel>
  </diagram>
  <diagram id="eWY" name="dark_slate_gray">
    <mxGraphModel dx="0" dy="0" background="#2F4F4F" grid="0" gridSize="10" guides="1" tooltips="1" connect="1" arrows="1" fold="1" page="1" pageScale="1" pageWidth="1169" pageHeight="827" math="0" shadow="0">
      <root>
        <mxCell id="page_root_eWY" parent="eWY"/>
        <mxCell id="node_root_eWY" parent="page_root_eWY"/>
        <mxCell id="eWY-2" value="dark_slate_gray" style="whiteSpace=wrap;html=1;fontColor=#FFFFFF;text;fontSize=89;fontStyle=1;fillColor=none" vertex="1" parent="node_root_eWY">
          <mxGeometry x="200" y="35" width="100" height="50" as="geometry"/>
        </mxCell>
        <mxCell id="eWY-3" value="dark_slate_gray" style="whiteSpace=wrap;html=1;fontColor=#FFFFFF;text;fontSize=21;fontStyle=1;fillColor=none" vertex="1" parent="node_root_eWY">
          <mxGeometry x="700" y="35" width="100" height="50" as="geometry"/>
        </mxCell>
        <mxCell id="eWY-4" value="dark_slate_gray" style="whiteSpace=wrap;html=1;fontColor=#FFFFFF;text;fontSize=67;fontStyle=1;fillColor=none" vertex="1" parent="node_root_eWY">
          <mxGeometry x="200" y="155" width="100" height="50" as="geometry"/>
        </mxCell>
        <mxCell id="eWY-5" value="dark_slate_gray" style="whiteSpace=wrap;html=1;fontColor=#FFFFFF;text;fontSize=28;fontStyle=1;fillColor=none" vertex="1" parent="node_root_eWY">
          <mxGeometry x="700" y="155" width="100" height="50" as="geometry"/>
        </mxCell>
        <mxCell id="eWY-6" value="dark_slate_gray" style="whiteSpace=wrap;html=1;fontColor=#FFFFFF;text;fontSize=50;fontStyle=1;fillColor=none" vertex="1" parent="node_root_eWY">
          <mxGeometry x="200" y="275" width="100" height="50" as="geometry"/>
        </mxCell>
        <mxCell id="eWY-7" value="dark_slate_gray" style="whiteSpace=wrap;html=1;fontColor=#FFFFFF;text;fontSize=37;fontStyle=1;fillColor=none" vertex="1" parent="node_root_eWY">
          <mxGeometry x="700" y="275" width="100" height="50" as="geometry"/>
        </mxCell>
        <mxCell id="eWY-8" value="dark_slate_gray" style="whiteSpace=wrap;html=1;fontColor=#FFFFFF;text;fontSize=16;fontStyle=1;fillColor=none" vertex="1" parent="node_root_eWY">
          <mxGeometry x="200" y="395" width="100" height="50" as="geometry"/>
        </mxCell>
        <mxCell id="eWY-9" value="" style="whiteSpace=wrap;html=1;fillColor=#ffffff;strokeColor=#000000;fontColor=#000000" vertex="1" parent="node_root_eWY">
          <mxGeometry x="705" y="375" width="90" height="90" as="geometry"/>
        </mxCell>
        <mxCell id="eWY-11" value="" style="whiteSpace=wrap;html=1;fillColor=#ffffff;strokeColor=#000000;fontColor=#000000" vertex="1" parent="node_root_eWY">
          <mxGeometry x="25" y="485" width="90" height="90" as="geometry"/>
        </mxCell>
        <mxCell id="eWY-12" value="" style="whiteSpace=wrap;html=1;fillColor=#ffffff;strokeColor=#000000;fontColor=#000000;ellipse" vertex="1" parent="node_root_eWY">
          <mxGeometry x="165" y="485" width="90" height="90" as="geometry"/>
        </mxCell>
        <mxCell id="eWY-13" value="" style="whiteSpace=wrap;html=1;fillColor=#ffffff;strokeColor=#000000;fontColor=#000000;shape=actor" vertex="1" parent="node_root_eWY">
          <mxGeometry x="305" y="485" width="90" height="90" as="geometry"/>
        </mxCell>
        <mxCell id="eWY-14" value="" style="whiteSpace=wrap;html=1;fillColor=#ffffff;strokeColor=#000000;fontColor=#000000;verticalLabelPosition=bottom;verticalAlign=top;shape=mxgraph.basic.tick" vertex="1" parent="node_root_eWY">
          <mxGeometry x="445" y="485" width="90" height="90" as="geometry"/>
        </mxCell>
        <mxCell id="eWY-15" value="" style="whiteSpace=wrap;html=1;fillColor=#ffffff;strokeColor=#000000;fontColor=#000000;verticalLabelPosition=bottom;verticalAlign=top;html=1;shape=mxgraph.basic.x" vertex="1" parent="node_root_eWY">
          <mxGeometry x="585" y="485" width="90" height="90" as="geometry"/>
        </mxCell>
        <mxCell id="eWY-16" value="" style="whiteSpace=wrap;html=1;fillColor=#ffffff;strokeColor=#000000;fontColor=#000000;shape=cloud" vertex="1" parent="node_root_eWY">
          <mxGeometry x="725" y="485" width="90" height="90" as="geometry"/>
        </mxCell>
      </root>
    </mxGraphModel>
  </diagram>
  <diagram id="Myg" name="dark_slate_grey">
    <mxGraphModel dx="0" dy="0" background="#2F4F4F" grid="0" gridSize="10" guides="1" tooltips="1" connect="1" arrows="1" fold="1" page="1" pageScale="1" pageWidth="1169" pageHeight="827" math="0" shadow="0">
      <root>
        <mxCell id="page_root_Myg" parent="Myg"/>
        <mxCell id="node_root_Myg" parent="page_root_Myg"/>
        <mxCell id="Myg-2" value="dark_slate_grey" style="whiteSpace=wrap;html=1;fontColor=#FFFFFF;text;fontSize=89;fontStyle=1;fillColor=none" vertex="1" parent="node_root_Myg">
          <mxGeometry x="200" y="35" width="100" height="50" as="geometry"/>
        </mxCell>
        <mxCell id="Myg-3" value="dark_slate_grey" style="whiteSpace=wrap;html=1;fontColor=#FFFFFF;text;fontSize=21;fontStyle=1;fillColor=none" vertex="1" parent="node_root_Myg">
          <mxGeometry x="700" y="35" width="100" height="50" as="geometry"/>
        </mxCell>
        <mxCell id="Myg-4" value="dark_slate_grey" style="whiteSpace=wrap;html=1;fontColor=#FFFFFF;text;fontSize=67;fontStyle=1;fillColor=none" vertex="1" parent="node_root_Myg">
          <mxGeometry x="200" y="155" width="100" height="50" as="geometry"/>
        </mxCell>
        <mxCell id="Myg-5" value="dark_slate_grey" style="whiteSpace=wrap;html=1;fontColor=#FFFFFF;text;fontSize=28;fontStyle=1;fillColor=none" vertex="1" parent="node_root_Myg">
          <mxGeometry x="700" y="155" width="100" height="50" as="geometry"/>
        </mxCell>
        <mxCell id="Myg-6" value="dark_slate_grey" style="whiteSpace=wrap;html=1;fontColor=#FFFFFF;text;fontSize=50;fontStyle=1;fillColor=none" vertex="1" parent="node_root_Myg">
          <mxGeometry x="200" y="275" width="100" height="50" as="geometry"/>
        </mxCell>
        <mxCell id="Myg-7" value="dark_slate_grey" style="whiteSpace=wrap;html=1;fontColor=#FFFFFF;text;fontSize=37;fontStyle=1;fillColor=none" vertex="1" parent="node_root_Myg">
          <mxGeometry x="700" y="275" width="100" height="50" as="geometry"/>
        </mxCell>
        <mxCell id="Myg-8" value="dark_slate_grey" style="whiteSpace=wrap;html=1;fontColor=#FFFFFF;text;fontSize=16;fontStyle=1;fillColor=none" vertex="1" parent="node_root_Myg">
          <mxGeometry x="200" y="395" width="100" height="50" as="geometry"/>
        </mxCell>
        <mxCell id="Myg-9" value="" style="whiteSpace=wrap;html=1;fillColor=#ffffff;strokeColor=#000000;fontColor=#000000" vertex="1" parent="node_root_Myg">
          <mxGeometry x="705" y="375" width="90" height="90" as="geometry"/>
        </mxCell>
        <mxCell id="Myg-11" value="" style="whiteSpace=wrap;html=1;fillColor=#ffffff;strokeColor=#000000;fontColor=#000000" vertex="1" parent="node_root_Myg">
          <mxGeometry x="25" y="485" width="90" height="90" as="geometry"/>
        </mxCell>
        <mxCell id="Myg-12" value="" style="whiteSpace=wrap;html=1;fillColor=#ffffff;strokeColor=#000000;fontColor=#000000;ellipse" vertex="1" parent="node_root_Myg">
          <mxGeometry x="165" y="485" width="90" height="90" as="geometry"/>
        </mxCell>
        <mxCell id="Myg-13" value="" style="whiteSpace=wrap;html=1;fillColor=#ffffff;strokeColor=#000000;fontColor=#000000;shape=actor" vertex="1" parent="node_root_Myg">
          <mxGeometry x="305" y="485" width="90" height="90" as="geometry"/>
        </mxCell>
        <mxCell id="Myg-14" value="" style="whiteSpace=wrap;html=1;fillColor=#ffffff;strokeColor=#000000;fontColor=#000000;verticalLabelPosition=bottom;verticalAlign=top;shape=mxgraph.basic.tick" vertex="1" parent="node_root_Myg">
          <mxGeometry x="445" y="485" width="90" height="90" as="geometry"/>
        </mxCell>
        <mxCell id="Myg-15" value="" style="whiteSpace=wrap;html=1;fillColor=#ffffff;strokeColor=#000000;fontColor=#000000;verticalLabelPosition=bottom;verticalAlign=top;html=1;shape=mxgraph.basic.x" vertex="1" parent="node_root_Myg">
          <mxGeometry x="585" y="485" width="90" height="90" as="geometry"/>
        </mxCell>
        <mxCell id="Myg-16" value="" style="whiteSpace=wrap;html=1;fillColor=#ffffff;strokeColor=#000000;fontColor=#000000;shape=cloud" vertex="1" parent="node_root_Myg">
          <mxGeometry x="725" y="485" width="90" height="90" as="geometry"/>
        </mxCell>
      </root>
    </mxGraphModel>
  </diagram>
  <diagram id="thB" name="lime_green">
    <mxGraphModel dx="0" dy="0" background="#32CD32" grid="0" gridSize="10" guides="1" tooltips="1" connect="1" arrows="1" fold="1" page="1" pageScale="1" pageWidth="1169" pageHeight="827" math="0" shadow="0">
      <root>
        <mxCell id="page_root_thB" parent="thB"/>
        <mxCell id="node_root_thB" parent="page_root_thB"/>
        <mxCell id="thB-2" value="lime_green" style="whiteSpace=wrap;html=1;fontColor=#FFFFFF;text;fontSize=89;fontStyle=1;fillColor=none" vertex="1" parent="node_root_thB">
          <mxGeometry x="200" y="35" width="100" height="50" as="geometry"/>
        </mxCell>
        <mxCell id="thB-3" value="lime_green" style="whiteSpace=wrap;html=1;fontColor=#FFFFFF;text;fontSize=21;fontStyle=1;fillColor=none" vertex="1" parent="node_root_thB">
          <mxGeometry x="700" y="35" width="100" height="50" as="geometry"/>
        </mxCell>
        <mxCell id="thB-4" value="lime_green" style="whiteSpace=wrap;html=1;fontColor=#FFFFFF;text;fontSize=67;fontStyle=1;fillColor=none" vertex="1" parent="node_root_thB">
          <mxGeometry x="200" y="155" width="100" height="50" as="geometry"/>
        </mxCell>
        <mxCell id="thB-5" value="lime_green" style="whiteSpace=wrap;html=1;fontColor=#FFFFFF;text;fontSize=28;fontStyle=1;fillColor=none" vertex="1" parent="node_root_thB">
          <mxGeometry x="700" y="155" width="100" height="50" as="geometry"/>
        </mxCell>
        <mxCell id="thB-6" value="lime_green" style="whiteSpace=wrap;html=1;fontColor=#FFFFFF;text;fontSize=50;fontStyle=1;fillColor=none" vertex="1" parent="node_root_thB">
          <mxGeometry x="200" y="275" width="100" height="50" as="geometry"/>
        </mxCell>
        <mxCell id="thB-7" value="lime_green" style="whiteSpace=wrap;html=1;fontColor=#FFFFFF;text;fontSize=37;fontStyle=1;fillColor=none" vertex="1" parent="node_root_thB">
          <mxGeometry x="700" y="275" width="100" height="50" as="geometry"/>
        </mxCell>
        <mxCell id="thB-8" value="lime_green" style="whiteSpace=wrap;html=1;fontColor=#FFFFFF;text;fontSize=16;fontStyle=1;fillColor=none" vertex="1" parent="node_root_thB">
          <mxGeometry x="200" y="395" width="100" height="50" as="geometry"/>
        </mxCell>
        <mxCell id="thB-9" value="" style="whiteSpace=wrap;html=1;fillColor=#ffffff;strokeColor=#000000;fontColor=#000000" vertex="1" parent="node_root_thB">
          <mxGeometry x="705" y="375" width="90" height="90" as="geometry"/>
        </mxCell>
        <mxCell id="thB-11" value="" style="whiteSpace=wrap;html=1;fillColor=#ffffff;strokeColor=#000000;fontColor=#000000" vertex="1" parent="node_root_thB">
          <mxGeometry x="25" y="485" width="90" height="90" as="geometry"/>
        </mxCell>
        <mxCell id="thB-12" value="" style="whiteSpace=wrap;html=1;fillColor=#ffffff;strokeColor=#000000;fontColor=#000000;ellipse" vertex="1" parent="node_root_thB">
          <mxGeometry x="165" y="485" width="90" height="90" as="geometry"/>
        </mxCell>
        <mxCell id="thB-13" value="" style="whiteSpace=wrap;html=1;fillColor=#ffffff;strokeColor=#000000;fontColor=#000000;shape=actor" vertex="1" parent="node_root_thB">
          <mxGeometry x="305" y="485" width="90" height="90" as="geometry"/>
        </mxCell>
        <mxCell id="thB-14" value="" style="whiteSpace=wrap;html=1;fillColor=#ffffff;strokeColor=#000000;fontColor=#000000;verticalLabelPosition=bottom;verticalAlign=top;shape=mxgraph.basic.tick" vertex="1" parent="node_root_thB">
          <mxGeometry x="445" y="485" width="90" height="90" as="geometry"/>
        </mxCell>
        <mxCell id="thB-15" value="" style="whiteSpace=wrap;html=1;fillColor=#ffffff;strokeColor=#000000;fontColor=#000000;verticalLabelPosition=bottom;verticalAlign=top;html=1;shape=mxgraph.basic.x" vertex="1" parent="node_root_thB">
          <mxGeometry x="585" y="485" width="90" height="90" as="geometry"/>
        </mxCell>
        <mxCell id="thB-16" value="" style="whiteSpace=wrap;html=1;fillColor=#ffffff;strokeColor=#000000;fontColor=#000000;shape=cloud" vertex="1" parent="node_root_thB">
          <mxGeometry x="725" y="485" width="90" height="90" as="geometry"/>
        </mxCell>
      </root>
    </mxGraphModel>
  </diagram>
  <diagram id="moG" name="medium_sea_green">
    <mxGraphModel dx="0" dy="0" background="#3CB371" grid="0" gridSize="10" guides="1" tooltips="1" connect="1" arrows="1" fold="1" page="1" pageScale="1" pageWidth="1169" pageHeight="827" math="0" shadow="0">
      <root>
        <mxCell id="page_root_moG" parent="moG"/>
        <mxCell id="node_root_moG" parent="page_root_moG"/>
        <mxCell id="moG-2" value="medium_sea_green" style="whiteSpace=wrap;html=1;fontColor=#FFFFFF;text;fontSize=89;fontStyle=1;fillColor=none" vertex="1" parent="node_root_moG">
          <mxGeometry x="200" y="35" width="100" height="50" as="geometry"/>
        </mxCell>
        <mxCell id="moG-3" value="medium_sea_green" style="whiteSpace=wrap;html=1;fontColor=#FFFFFF;text;fontSize=21;fontStyle=1;fillColor=none" vertex="1" parent="node_root_moG">
          <mxGeometry x="700" y="35" width="100" height="50" as="geometry"/>
        </mxCell>
        <mxCell id="moG-4" value="medium_sea_green" style="whiteSpace=wrap;html=1;fontColor=#FFFFFF;text;fontSize=67;fontStyle=1;fillColor=none" vertex="1" parent="node_root_moG">
          <mxGeometry x="200" y="155" width="100" height="50" as="geometry"/>
        </mxCell>
        <mxCell id="moG-5" value="medium_sea_green" style="whiteSpace=wrap;html=1;fontColor=#FFFFFF;text;fontSize=28;fontStyle=1;fillColor=none" vertex="1" parent="node_root_moG">
          <mxGeometry x="700" y="155" width="100" height="50" as="geometry"/>
        </mxCell>
        <mxCell id="moG-6" value="medium_sea_green" style="whiteSpace=wrap;html=1;fontColor=#FFFFFF;text;fontSize=50;fontStyle=1;fillColor=none" vertex="1" parent="node_root_moG">
          <mxGeometry x="200" y="275" width="100" height="50" as="geometry"/>
        </mxCell>
        <mxCell id="moG-7" value="medium_sea_green" style="whiteSpace=wrap;html=1;fontColor=#FFFFFF;text;fontSize=37;fontStyle=1;fillColor=none" vertex="1" parent="node_root_moG">
          <mxGeometry x="700" y="275" width="100" height="50" as="geometry"/>
        </mxCell>
        <mxCell id="moG-8" value="medium_sea_green" style="whiteSpace=wrap;html=1;fontColor=#FFFFFF;text;fontSize=16;fontStyle=1;fillColor=none" vertex="1" parent="node_root_moG">
          <mxGeometry x="200" y="395" width="100" height="50" as="geometry"/>
        </mxCell>
        <mxCell id="moG-9" value="" style="whiteSpace=wrap;html=1;fillColor=#ffffff;strokeColor=#000000;fontColor=#000000" vertex="1" parent="node_root_moG">
          <mxGeometry x="705" y="375" width="90" height="90" as="geometry"/>
        </mxCell>
        <mxCell id="moG-11" value="" style="whiteSpace=wrap;html=1;fillColor=#ffffff;strokeColor=#000000;fontColor=#000000" vertex="1" parent="node_root_moG">
          <mxGeometry x="25" y="485" width="90" height="90" as="geometry"/>
        </mxCell>
        <mxCell id="moG-12" value="" style="whiteSpace=wrap;html=1;fillColor=#ffffff;strokeColor=#000000;fontColor=#000000;ellipse" vertex="1" parent="node_root_moG">
          <mxGeometry x="165" y="485" width="90" height="90" as="geometry"/>
        </mxCell>
        <mxCell id="moG-13" value="" style="whiteSpace=wrap;html=1;fillColor=#ffffff;strokeColor=#000000;fontColor=#000000;shape=actor" vertex="1" parent="node_root_moG">
          <mxGeometry x="305" y="485" width="90" height="90" as="geometry"/>
        </mxCell>
        <mxCell id="moG-14" value="" style="whiteSpace=wrap;html=1;fillColor=#ffffff;strokeColor=#000000;fontColor=#000000;verticalLabelPosition=bottom;verticalAlign=top;shape=mxgraph.basic.tick" vertex="1" parent="node_root_moG">
          <mxGeometry x="445" y="485" width="90" height="90" as="geometry"/>
        </mxCell>
        <mxCell id="moG-15" value="" style="whiteSpace=wrap;html=1;fillColor=#ffffff;strokeColor=#000000;fontColor=#000000;verticalLabelPosition=bottom;verticalAlign=top;html=1;shape=mxgraph.basic.x" vertex="1" parent="node_root_moG">
          <mxGeometry x="585" y="485" width="90" height="90" as="geometry"/>
        </mxCell>
        <mxCell id="moG-16" value="" style="whiteSpace=wrap;html=1;fillColor=#ffffff;strokeColor=#000000;fontColor=#000000;shape=cloud" vertex="1" parent="node_root_moG">
          <mxGeometry x="725" y="485" width="90" height="90" as="geometry"/>
        </mxCell>
      </root>
    </mxGraphModel>
  </diagram>
  <diagram id="Bhl" name="turquoise">
    <mxGraphModel dx="0" dy="0" background="#40E0D0" grid="0" gridSize="10" guides="1" tooltips="1" connect="1" arrows="1" fold="1" page="1" pageScale="1" pageWidth="1169" pageHeight="827" math="0" shadow="0">
      <root>
        <mxCell id="page_root_Bhl" parent="Bhl"/>
        <mxCell id="node_root_Bhl" parent="page_root_Bhl"/>
        <mxCell id="Bhl-2" value="turquoise" style="whiteSpace=wrap;html=1;fontColor=#1F2D3D;text;fontSize=89;fontStyle=1;fillColor=none" vertex="1" parent="node_root_Bhl">
          <mxGeometry x="200" y="35" width="100" height="50" as="geometry"/>
        </mxCell>
        <mxCell id="Bhl-3" value="turquoise" style="whiteSpace=wrap;html=1;fontColor=#1F2D3D;text;fontSize=21;fontStyle=1;fillColor=none" vertex="1" parent="node_root_Bhl">
          <mxGeometry x="700" y="35" width="100" height="50" as="geometry"/>
        </mxCell>
        <mxCell id="Bhl-4" value="turquoise" style="whiteSpace=wrap;html=1;fontColor=#1F2D3D;text;fontSize=67;fontStyle=1;fillColor=none" vertex="1" parent="node_root_Bhl">
          <mxGeometry x="200" y="155" width="100" height="50" as="geometry"/>
        </mxCell>
        <mxCell id="Bhl-5" value="turquoise" style="whiteSpace=wrap;html=1;fontColor=#1F2D3D;text;fontSize=28;fontStyle=1;fillColor=none" vertex="1" parent="node_root_Bhl">
          <mxGeometry x="700" y="155" width="100" height="50" as="geometry"/>
        </mxCell>
        <mxCell id="Bhl-6" value="turquoise" style="whiteSpace=wrap;html=1;fontColor=#1F2D3D;text;fontSize=50;fontStyle=1;fillColor=none" vertex="1" parent="node_root_Bhl">
          <mxGeometry x="200" y="275" width="100" height="50" as="geometry"/>
        </mxCell>
        <mxCell id="Bhl-7" value="turquoise" style="whiteSpace=wrap;html=1;fontColor=#1F2D3D;text;fontSize=37;fontStyle=1;fillColor=none" vertex="1" parent="node_root_Bhl">
          <mxGeometry x="700" y="275" width="100" height="50" as="geometry"/>
        </mxCell>
        <mxCell id="Bhl-8" value="turquoise" style="whiteSpace=wrap;html=1;fontColor=#1F2D3D;text;fontSize=16;fontStyle=1;fillColor=none" vertex="1" parent="node_root_Bhl">
          <mxGeometry x="200" y="395" width="100" height="50" as="geometry"/>
        </mxCell>
        <mxCell id="Bhl-9" value="" style="whiteSpace=wrap;html=1;fillColor=#ffffff;strokeColor=#000000;fontColor=#000000" vertex="1" parent="node_root_Bhl">
          <mxGeometry x="705" y="375" width="90" height="90" as="geometry"/>
        </mxCell>
        <mxCell id="Bhl-11" value="" style="whiteSpace=wrap;html=1;fillColor=#ffffff;strokeColor=#000000;fontColor=#000000" vertex="1" parent="node_root_Bhl">
          <mxGeometry x="25" y="485" width="90" height="90" as="geometry"/>
        </mxCell>
        <mxCell id="Bhl-12" value="" style="whiteSpace=wrap;html=1;fillColor=#ffffff;strokeColor=#000000;fontColor=#000000;ellipse" vertex="1" parent="node_root_Bhl">
          <mxGeometry x="165" y="485" width="90" height="90" as="geometry"/>
        </mxCell>
        <mxCell id="Bhl-13" value="" style="whiteSpace=wrap;html=1;fillColor=#ffffff;strokeColor=#000000;fontColor=#000000;shape=actor" vertex="1" parent="node_root_Bhl">
          <mxGeometry x="305" y="485" width="90" height="90" as="geometry"/>
        </mxCell>
        <mxCell id="Bhl-14" value="" style="whiteSpace=wrap;html=1;fillColor=#ffffff;strokeColor=#000000;fontColor=#000000;verticalLabelPosition=bottom;verticalAlign=top;shape=mxgraph.basic.tick" vertex="1" parent="node_root_Bhl">
          <mxGeometry x="445" y="485" width="90" height="90" as="geometry"/>
        </mxCell>
        <mxCell id="Bhl-15" value="" style="whiteSpace=wrap;html=1;fillColor=#ffffff;strokeColor=#000000;fontColor=#000000;verticalLabelPosition=bottom;verticalAlign=top;html=1;shape=mxgraph.basic.x" vertex="1" parent="node_root_Bhl">
          <mxGeometry x="585" y="485" width="90" height="90" as="geometry"/>
        </mxCell>
        <mxCell id="Bhl-16" value="" style="whiteSpace=wrap;html=1;fillColor=#ffffff;strokeColor=#000000;fontColor=#000000;shape=cloud" vertex="1" parent="node_root_Bhl">
          <mxGeometry x="725" y="485" width="90" height="90" as="geometry"/>
        </mxCell>
      </root>
    </mxGraphModel>
  </diagram>
  <diagram id="Bs7" name="royal_blue">
    <mxGraphModel dx="0" dy="0" background="#4169E1" grid="0" gridSize="10" guides="1" tooltips="1" connect="1" arrows="1" fold="1" page="1" pageScale="1" pageWidth="1169" pageHeight="827" math="0" shadow="0">
      <root>
        <mxCell id="page_root_Bs7" parent="Bs7"/>
        <mxCell id="node_root_Bs7" parent="page_root_Bs7"/>
        <mxCell id="Bs7-2" value="royal_blue" style="whiteSpace=wrap;html=1;fontColor=#FFFFFF;text;fontSize=89;fontStyle=1;fillColor=none" vertex="1" parent="node_root_Bs7">
          <mxGeometry x="200" y="35" width="100" height="50" as="geometry"/>
        </mxCell>
        <mxCell id="Bs7-3" value="royal_blue" style="whiteSpace=wrap;html=1;fontColor=#FFFFFF;text;fontSize=21;fontStyle=1;fillColor=none" vertex="1" parent="node_root_Bs7">
          <mxGeometry x="700" y="35" width="100" height="50" as="geometry"/>
        </mxCell>
        <mxCell id="Bs7-4" value="royal_blue" style="whiteSpace=wrap;html=1;fontColor=#FFFFFF;text;fontSize=67;fontStyle=1;fillColor=none" vertex="1" parent="node_root_Bs7">
          <mxGeometry x="200" y="155" width="100" height="50" as="geometry"/>
        </mxCell>
        <mxCell id="Bs7-5" value="royal_blue" style="whiteSpace=wrap;html=1;fontColor=#FFFFFF;text;fontSize=28;fontStyle=1;fillColor=none" vertex="1" parent="node_root_Bs7">
          <mxGeometry x="700" y="155" width="100" height="50" as="geometry"/>
        </mxCell>
        <mxCell id="Bs7-6" value="royal_blue" style="whiteSpace=wrap;html=1;fontColor=#FFFFFF;text;fontSize=50;fontStyle=1;fillColor=none" vertex="1" parent="node_root_Bs7">
          <mxGeometry x="200" y="275" width="100" height="50" as="geometry"/>
        </mxCell>
        <mxCell id="Bs7-7" value="royal_blue" style="whiteSpace=wrap;html=1;fontColor=#FFFFFF;text;fontSize=37;fontStyle=1;fillColor=none" vertex="1" parent="node_root_Bs7">
          <mxGeometry x="700" y="275" width="100" height="50" as="geometry"/>
        </mxCell>
        <mxCell id="Bs7-8" value="royal_blue" style="whiteSpace=wrap;html=1;fontColor=#FFFFFF;text;fontSize=16;fontStyle=1;fillColor=none" vertex="1" parent="node_root_Bs7">
          <mxGeometry x="200" y="395" width="100" height="50" as="geometry"/>
        </mxCell>
        <mxCell id="Bs7-9" value="" style="whiteSpace=wrap;html=1;fillColor=#ffffff;strokeColor=#000000;fontColor=#000000" vertex="1" parent="node_root_Bs7">
          <mxGeometry x="705" y="375" width="90" height="90" as="geometry"/>
        </mxCell>
        <mxCell id="Bs7-11" value="" style="whiteSpace=wrap;html=1;fillColor=#ffffff;strokeColor=#000000;fontColor=#000000" vertex="1" parent="node_root_Bs7">
          <mxGeometry x="25" y="485" width="90" height="90" as="geometry"/>
        </mxCell>
        <mxCell id="Bs7-12" value="" style="whiteSpace=wrap;html=1;fillColor=#ffffff;strokeColor=#000000;fontColor=#000000;ellipse" vertex="1" parent="node_root_Bs7">
          <mxGeometry x="165" y="485" width="90" height="90" as="geometry"/>
        </mxCell>
        <mxCell id="Bs7-13" value="" style="whiteSpace=wrap;html=1;fillColor=#ffffff;strokeColor=#000000;fontColor=#000000;shape=actor" vertex="1" parent="node_root_Bs7">
          <mxGeometry x="305" y="485" width="90" height="90" as="geometry"/>
        </mxCell>
        <mxCell id="Bs7-14" value="" style="whiteSpace=wrap;html=1;fillColor=#ffffff;strokeColor=#000000;fontColor=#000000;verticalLabelPosition=bottom;verticalAlign=top;shape=mxgraph.basic.tick" vertex="1" parent="node_root_Bs7">
          <mxGeometry x="445" y="485" width="90" height="90" as="geometry"/>
        </mxCell>
        <mxCell id="Bs7-15" value="" style="whiteSpace=wrap;html=1;fillColor=#ffffff;strokeColor=#000000;fontColor=#000000;verticalLabelPosition=bottom;verticalAlign=top;html=1;shape=mxgraph.basic.x" vertex="1" parent="node_root_Bs7">
          <mxGeometry x="585" y="485" width="90" height="90" as="geometry"/>
        </mxCell>
        <mxCell id="Bs7-16" value="" style="whiteSpace=wrap;html=1;fillColor=#ffffff;strokeColor=#000000;fontColor=#000000;shape=cloud" vertex="1" parent="node_root_Bs7">
          <mxGeometry x="725" y="485" width="90" height="90" as="geometry"/>
        </mxCell>
      </root>
    </mxGraphModel>
  </diagram>
  <diagram id="snu" name="steel_blue">
    <mxGraphModel dx="0" dy="0" background="#4682B4" grid="0" gridSize="10" guides="1" tooltips="1" connect="1" arrows="1" fold="1" page="1" pageScale="1" pageWidth="1169" pageHeight="827" math="0" shadow="0">
      <root>
        <mxCell id="page_root_snu" parent="snu"/>
        <mxCell id="node_root_snu" parent="page_root_snu"/>
        <mxCell id="snu-2" value="steel_blue" style="whiteSpace=wrap;html=1;fontColor=#FFFFFF;text;fontSize=89;fontStyle=1;fillColor=none" vertex="1" parent="node_root_snu">
          <mxGeometry x="200" y="35" width="100" height="50" as="geometry"/>
        </mxCell>
        <mxCell id="snu-3" value="steel_blue" style="whiteSpace=wrap;html=1;fontColor=#FFFFFF;text;fontSize=21;fontStyle=1;fillColor=none" vertex="1" parent="node_root_snu">
          <mxGeometry x="700" y="35" width="100" height="50" as="geometry"/>
        </mxCell>
        <mxCell id="snu-4" value="steel_blue" style="whiteSpace=wrap;html=1;fontColor=#FFFFFF;text;fontSize=67;fontStyle=1;fillColor=none" vertex="1" parent="node_root_snu">
          <mxGeometry x="200" y="155" width="100" height="50" as="geometry"/>
        </mxCell>
        <mxCell id="snu-5" value="steel_blue" style="whiteSpace=wrap;html=1;fontColor=#FFFFFF;text;fontSize=28;fontStyle=1;fillColor=none" vertex="1" parent="node_root_snu">
          <mxGeometry x="700" y="155" width="100" height="50" as="geometry"/>
        </mxCell>
        <mxCell id="snu-6" value="steel_blue" style="whiteSpace=wrap;html=1;fontColor=#FFFFFF;text;fontSize=50;fontStyle=1;fillColor=none" vertex="1" parent="node_root_snu">
          <mxGeometry x="200" y="275" width="100" height="50" as="geometry"/>
        </mxCell>
        <mxCell id="snu-7" value="steel_blue" style="whiteSpace=wrap;html=1;fontColor=#FFFFFF;text;fontSize=37;fontStyle=1;fillColor=none" vertex="1" parent="node_root_snu">
          <mxGeometry x="700" y="275" width="100" height="50" as="geometry"/>
        </mxCell>
        <mxCell id="snu-8" value="steel_blue" style="whiteSpace=wrap;html=1;fontColor=#FFFFFF;text;fontSize=16;fontStyle=1;fillColor=none" vertex="1" parent="node_root_snu">
          <mxGeometry x="200" y="395" width="100" height="50" as="geometry"/>
        </mxCell>
        <mxCell id="snu-9" value="" style="whiteSpace=wrap;html=1;fillColor=#ffffff;strokeColor=#000000;fontColor=#000000" vertex="1" parent="node_root_snu">
          <mxGeometry x="705" y="375" width="90" height="90" as="geometry"/>
        </mxCell>
        <mxCell id="snu-11" value="" style="whiteSpace=wrap;html=1;fillColor=#ffffff;strokeColor=#000000;fontColor=#000000" vertex="1" parent="node_root_snu">
          <mxGeometry x="25" y="485" width="90" height="90" as="geometry"/>
        </mxCell>
        <mxCell id="snu-12" value="" style="whiteSpace=wrap;html=1;fillColor=#ffffff;strokeColor=#000000;fontColor=#000000;ellipse" vertex="1" parent="node_root_snu">
          <mxGeometry x="165" y="485" width="90" height="90" as="geometry"/>
        </mxCell>
        <mxCell id="snu-13" value="" style="whiteSpace=wrap;html=1;fillColor=#ffffff;strokeColor=#000000;fontColor=#000000;shape=actor" vertex="1" parent="node_root_snu">
          <mxGeometry x="305" y="485" width="90" height="90" as="geometry"/>
        </mxCell>
        <mxCell id="snu-14" value="" style="whiteSpace=wrap;html=1;fillColor=#ffffff;strokeColor=#000000;fontColor=#000000;verticalLabelPosition=bottom;verticalAlign=top;shape=mxgraph.basic.tick" vertex="1" parent="node_root_snu">
          <mxGeometry x="445" y="485" width="90" height="90" as="geometry"/>
        </mxCell>
        <mxCell id="snu-15" value="" style="whiteSpace=wrap;html=1;fillColor=#ffffff;strokeColor=#000000;fontColor=#000000;verticalLabelPosition=bottom;verticalAlign=top;html=1;shape=mxgraph.basic.x" vertex="1" parent="node_root_snu">
          <mxGeometry x="585" y="485" width="90" height="90" as="geometry"/>
        </mxCell>
        <mxCell id="snu-16" value="" style="whiteSpace=wrap;html=1;fillColor=#ffffff;strokeColor=#000000;fontColor=#000000;shape=cloud" vertex="1" parent="node_root_snu">
          <mxGeometry x="725" y="485" width="90" height="90" as="geometry"/>
        </mxCell>
      </root>
    </mxGraphModel>
  </diagram>
  <diagram id="5Vk" name="dark_slate_blue">
    <mxGraphModel dx="0" dy="0" background="#483D8B" grid="0" gridSize="10" guides="1" tooltips="1" connect="1" arrows="1" fold="1" page="1" pageScale="1" pageWidth="1169" pageHeight="827" math="0" shadow="0">
      <root>
        <mxCell id="page_root_5Vk" parent="5Vk"/>
        <mxCell id="node_root_5Vk" parent="page_root_5Vk"/>
        <mxCell id="5Vk-2" value="dark_slate_blue" style="whiteSpace=wrap;html=1;fontColor=#FFFFFF;text;fontSize=89;fontStyle=1;fillColor=none" vertex="1" parent="node_root_5Vk">
          <mxGeometry x="200" y="35" width="100" height="50" as="geometry"/>
        </mxCell>
        <mxCell id="5Vk-3" value="dark_slate_blue" style="whiteSpace=wrap;html=1;fontColor=#FFFFFF;text;fontSize=21;fontStyle=1;fillColor=none" vertex="1" parent="node_root_5Vk">
          <mxGeometry x="700" y="35" width="100" height="50" as="geometry"/>
        </mxCell>
        <mxCell id="5Vk-4" value="dark_slate_blue" style="whiteSpace=wrap;html=1;fontColor=#FFFFFF;text;fontSize=67;fontStyle=1;fillColor=none" vertex="1" parent="node_root_5Vk">
          <mxGeometry x="200" y="155" width="100" height="50" as="geometry"/>
        </mxCell>
        <mxCell id="5Vk-5" value="dark_slate_blue" style="whiteSpace=wrap;html=1;fontColor=#FFFFFF;text;fontSize=28;fontStyle=1;fillColor=none" vertex="1" parent="node_root_5Vk">
          <mxGeometry x="700" y="155" width="100" height="50" as="geometry"/>
        </mxCell>
        <mxCell id="5Vk-6" value="dark_slate_blue" style="whiteSpace=wrap;html=1;fontColor=#FFFFFF;text;fontSize=50;fontStyle=1;fillColor=none" vertex="1" parent="node_root_5Vk">
          <mxGeometry x="200" y="275" width="100" height="50" as="geometry"/>
        </mxCell>
        <mxCell id="5Vk-7" value="dark_slate_blue" style="whiteSpace=wrap;html=1;fontColor=#FFFFFF;text;fontSize=37;fontStyle=1;fillColor=none" vertex="1" parent="node_root_5Vk">
          <mxGeometry x="700" y="275" width="100" height="50" as="geometry"/>
        </mxCell>
        <mxCell id="5Vk-8" value="dark_slate_blue" style="whiteSpace=wrap;html=1;fontColor=#FFFFFF;text;fontSize=16;fontStyle=1;fillColor=none" vertex="1" parent="node_root_5Vk">
          <mxGeometry x="200" y="395" width="100" height="50" as="geometry"/>
        </mxCell>
        <mxCell id="5Vk-9" value="" style="whiteSpace=wrap;html=1;fillColor=#ffffff;strokeColor=#000000;fontColor=#000000" vertex="1" parent="node_root_5Vk">
          <mxGeometry x="705" y="375" width="90" height="90" as="geometry"/>
        </mxCell>
        <mxCell id="5Vk-11" value="" style="whiteSpace=wrap;html=1;fillColor=#ffffff;strokeColor=#000000;fontColor=#000000" vertex="1" parent="node_root_5Vk">
          <mxGeometry x="25" y="485" width="90" height="90" as="geometry"/>
        </mxCell>
        <mxCell id="5Vk-12" value="" style="whiteSpace=wrap;html=1;fillColor=#ffffff;strokeColor=#000000;fontColor=#000000;ellipse" vertex="1" parent="node_root_5Vk">
          <mxGeometry x="165" y="485" width="90" height="90" as="geometry"/>
        </mxCell>
        <mxCell id="5Vk-13" value="" style="whiteSpace=wrap;html=1;fillColor=#ffffff;strokeColor=#000000;fontColor=#000000;shape=actor" vertex="1" parent="node_root_5Vk">
          <mxGeometry x="305" y="485" width="90" height="90" as="geometry"/>
        </mxCell>
        <mxCell id="5Vk-14" value="" style="whiteSpace=wrap;html=1;fillColor=#ffffff;strokeColor=#000000;fontColor=#000000;verticalLabelPosition=bottom;verticalAlign=top;shape=mxgraph.basic.tick" vertex="1" parent="node_root_5Vk">
          <mxGeometry x="445" y="485" width="90" height="90" as="geometry"/>
        </mxCell>
        <mxCell id="5Vk-15" value="" style="whiteSpace=wrap;html=1;fillColor=#ffffff;strokeColor=#000000;fontColor=#000000;verticalLabelPosition=bottom;verticalAlign=top;html=1;shape=mxgraph.basic.x" vertex="1" parent="node_root_5Vk">
          <mxGeometry x="585" y="485" width="90" height="90" as="geometry"/>
        </mxCell>
        <mxCell id="5Vk-16" value="" style="whiteSpace=wrap;html=1;fillColor=#ffffff;strokeColor=#000000;fontColor=#000000;shape=cloud" vertex="1" parent="node_root_5Vk">
          <mxGeometry x="725" y="485" width="90" height="90" as="geometry"/>
        </mxCell>
      </root>
    </mxGraphModel>
  </diagram>
  <diagram id="khi" name="medium_turquoise">
    <mxGraphModel dx="0" dy="0" background="#48D1CC" grid="0" gridSize="10" guides="1" tooltips="1" connect="1" arrows="1" fold="1" page="1" pageScale="1" pageWidth="1169" pageHeight="827" math="0" shadow="0">
      <root>
        <mxCell id="page_root_khi" parent="khi"/>
        <mxCell id="node_root_khi" parent="page_root_khi"/>
        <mxCell id="khi-2" value="medium_turquoise" style="whiteSpace=wrap;html=1;fontColor=#1F2D3D;text;fontSize=89;fontStyle=1;fillColor=none" vertex="1" parent="node_root_khi">
          <mxGeometry x="200" y="35" width="100" height="50" as="geometry"/>
        </mxCell>
        <mxCell id="khi-3" value="medium_turquoise" style="whiteSpace=wrap;html=1;fontColor=#1F2D3D;text;fontSize=21;fontStyle=1;fillColor=none" vertex="1" parent="node_root_khi">
          <mxGeometry x="700" y="35" width="100" height="50" as="geometry"/>
        </mxCell>
        <mxCell id="khi-4" value="medium_turquoise" style="whiteSpace=wrap;html=1;fontColor=#1F2D3D;text;fontSize=67;fontStyle=1;fillColor=none" vertex="1" parent="node_root_khi">
          <mxGeometry x="200" y="155" width="100" height="50" as="geometry"/>
        </mxCell>
        <mxCell id="khi-5" value="medium_turquoise" style="whiteSpace=wrap;html=1;fontColor=#1F2D3D;text;fontSize=28;fontStyle=1;fillColor=none" vertex="1" parent="node_root_khi">
          <mxGeometry x="700" y="155" width="100" height="50" as="geometry"/>
        </mxCell>
        <mxCell id="khi-6" value="medium_turquoise" style="whiteSpace=wrap;html=1;fontColor=#1F2D3D;text;fontSize=50;fontStyle=1;fillColor=none" vertex="1" parent="node_root_khi">
          <mxGeometry x="200" y="275" width="100" height="50" as="geometry"/>
        </mxCell>
        <mxCell id="khi-7" value="medium_turquoise" style="whiteSpace=wrap;html=1;fontColor=#1F2D3D;text;fontSize=37;fontStyle=1;fillColor=none" vertex="1" parent="node_root_khi">
          <mxGeometry x="700" y="275" width="100" height="50" as="geometry"/>
        </mxCell>
        <mxCell id="khi-8" value="medium_turquoise" style="whiteSpace=wrap;html=1;fontColor=#1F2D3D;text;fontSize=16;fontStyle=1;fillColor=none" vertex="1" parent="node_root_khi">
          <mxGeometry x="200" y="395" width="100" height="50" as="geometry"/>
        </mxCell>
        <mxCell id="khi-9" value="" style="whiteSpace=wrap;html=1;fillColor=#ffffff;strokeColor=#000000;fontColor=#000000" vertex="1" parent="node_root_khi">
          <mxGeometry x="705" y="375" width="90" height="90" as="geometry"/>
        </mxCell>
        <mxCell id="khi-11" value="" style="whiteSpace=wrap;html=1;fillColor=#ffffff;strokeColor=#000000;fontColor=#000000" vertex="1" parent="node_root_khi">
          <mxGeometry x="25" y="485" width="90" height="90" as="geometry"/>
        </mxCell>
        <mxCell id="khi-12" value="" style="whiteSpace=wrap;html=1;fillColor=#ffffff;strokeColor=#000000;fontColor=#000000;ellipse" vertex="1" parent="node_root_khi">
          <mxGeometry x="165" y="485" width="90" height="90" as="geometry"/>
        </mxCell>
        <mxCell id="khi-13" value="" style="whiteSpace=wrap;html=1;fillColor=#ffffff;strokeColor=#000000;fontColor=#000000;shape=actor" vertex="1" parent="node_root_khi">
          <mxGeometry x="305" y="485" width="90" height="90" as="geometry"/>
        </mxCell>
        <mxCell id="khi-14" value="" style="whiteSpace=wrap;html=1;fillColor=#ffffff;strokeColor=#000000;fontColor=#000000;verticalLabelPosition=bottom;verticalAlign=top;shape=mxgraph.basic.tick" vertex="1" parent="node_root_khi">
          <mxGeometry x="445" y="485" width="90" height="90" as="geometry"/>
        </mxCell>
        <mxCell id="khi-15" value="" style="whiteSpace=wrap;html=1;fillColor=#ffffff;strokeColor=#000000;fontColor=#000000;verticalLabelPosition=bottom;verticalAlign=top;html=1;shape=mxgraph.basic.x" vertex="1" parent="node_root_khi">
          <mxGeometry x="585" y="485" width="90" height="90" as="geometry"/>
        </mxCell>
        <mxCell id="khi-16" value="" style="whiteSpace=wrap;html=1;fillColor=#ffffff;strokeColor=#000000;fontColor=#000000;shape=cloud" vertex="1" parent="node_root_khi">
          <mxGeometry x="725" y="485" width="90" height="90" as="geometry"/>
        </mxCell>
      </root>
    </mxGraphModel>
  </diagram>
  <diagram id="gj8" name="indigo">
    <mxGraphModel dx="0" dy="0" background="#4B0082" grid="0" gridSize="10" guides="1" tooltips="1" connect="1" arrows="1" fold="1" page="1" pageScale="1" pageWidth="1169" pageHeight="827" math="0" shadow="0">
      <root>
        <mxCell id="page_root_gj8" parent="gj8"/>
        <mxCell id="node_root_gj8" parent="page_root_gj8"/>
        <mxCell id="gj8-2" value="indigo" style="whiteSpace=wrap;html=1;fontColor=#FFFFFF;text;fontSize=89;fontStyle=1;fillColor=none" vertex="1" parent="node_root_gj8">
          <mxGeometry x="200" y="35" width="100" height="50" as="geometry"/>
        </mxCell>
        <mxCell id="gj8-3" value="indigo" style="whiteSpace=wrap;html=1;fontColor=#FFFFFF;text;fontSize=21;fontStyle=1;fillColor=none" vertex="1" parent="node_root_gj8">
          <mxGeometry x="700" y="35" width="100" height="50" as="geometry"/>
        </mxCell>
        <mxCell id="gj8-4" value="indigo" style="whiteSpace=wrap;html=1;fontColor=#FFFFFF;text;fontSize=67;fontStyle=1;fillColor=none" vertex="1" parent="node_root_gj8">
          <mxGeometry x="200" y="155" width="100" height="50" as="geometry"/>
        </mxCell>
        <mxCell id="gj8-5" value="indigo" style="whiteSpace=wrap;html=1;fontColor=#FFFFFF;text;fontSize=28;fontStyle=1;fillColor=none" vertex="1" parent="node_root_gj8">
          <mxGeometry x="700" y="155" width="100" height="50" as="geometry"/>
        </mxCell>
        <mxCell id="gj8-6" value="indigo" style="whiteSpace=wrap;html=1;fontColor=#FFFFFF;text;fontSize=50;fontStyle=1;fillColor=none" vertex="1" parent="node_root_gj8">
          <mxGeometry x="200" y="275" width="100" height="50" as="geometry"/>
        </mxCell>
        <mxCell id="gj8-7" value="indigo" style="whiteSpace=wrap;html=1;fontColor=#FFFFFF;text;fontSize=37;fontStyle=1;fillColor=none" vertex="1" parent="node_root_gj8">
          <mxGeometry x="700" y="275" width="100" height="50" as="geometry"/>
        </mxCell>
        <mxCell id="gj8-8" value="indigo" style="whiteSpace=wrap;html=1;fontColor=#FFFFFF;text;fontSize=16;fontStyle=1;fillColor=none" vertex="1" parent="node_root_gj8">
          <mxGeometry x="200" y="395" width="100" height="50" as="geometry"/>
        </mxCell>
        <mxCell id="gj8-9" value="" style="whiteSpace=wrap;html=1;fillColor=#ffffff;strokeColor=#000000;fontColor=#000000" vertex="1" parent="node_root_gj8">
          <mxGeometry x="705" y="375" width="90" height="90" as="geometry"/>
        </mxCell>
        <mxCell id="gj8-11" value="" style="whiteSpace=wrap;html=1;fillColor=#ffffff;strokeColor=#000000;fontColor=#000000" vertex="1" parent="node_root_gj8">
          <mxGeometry x="25" y="485" width="90" height="90" as="geometry"/>
        </mxCell>
        <mxCell id="gj8-12" value="" style="whiteSpace=wrap;html=1;fillColor=#ffffff;strokeColor=#000000;fontColor=#000000;ellipse" vertex="1" parent="node_root_gj8">
          <mxGeometry x="165" y="485" width="90" height="90" as="geometry"/>
        </mxCell>
        <mxCell id="gj8-13" value="" style="whiteSpace=wrap;html=1;fillColor=#ffffff;strokeColor=#000000;fontColor=#000000;shape=actor" vertex="1" parent="node_root_gj8">
          <mxGeometry x="305" y="485" width="90" height="90" as="geometry"/>
        </mxCell>
        <mxCell id="gj8-14" value="" style="whiteSpace=wrap;html=1;fillColor=#ffffff;strokeColor=#000000;fontColor=#000000;verticalLabelPosition=bottom;verticalAlign=top;shape=mxgraph.basic.tick" vertex="1" parent="node_root_gj8">
          <mxGeometry x="445" y="485" width="90" height="90" as="geometry"/>
        </mxCell>
        <mxCell id="gj8-15" value="" style="whiteSpace=wrap;html=1;fillColor=#ffffff;strokeColor=#000000;fontColor=#000000;verticalLabelPosition=bottom;verticalAlign=top;html=1;shape=mxgraph.basic.x" vertex="1" parent="node_root_gj8">
          <mxGeometry x="585" y="485" width="90" height="90" as="geometry"/>
        </mxCell>
        <mxCell id="gj8-16" value="" style="whiteSpace=wrap;html=1;fillColor=#ffffff;strokeColor=#000000;fontColor=#000000;shape=cloud" vertex="1" parent="node_root_gj8">
          <mxGeometry x="725" y="485" width="90" height="90" as="geometry"/>
        </mxCell>
      </root>
    </mxGraphModel>
  </diagram>
</mxfile>